<?xml version="1.0" encoding="UTF-8"?>
<svg width="200px" height="23px" viewBox="0 0 200 23" version="1.1" xmlns="http://www.w3.org/2000/svg" xmlns:xlink="http://www.w3.org/1999/xlink">
    <!-- Generator: Sketch 62 (91390) - https://sketch.com -->
    <title>Group 55</title>
    <desc>Created with Sketch.</desc>
    <defs>
        <polygon id="path-1" points="0.394315385 0.16212 20.4226615 0.16212 20.4226615 20 0.394315385 20"></polygon>
        <polygon id="path-3" points="0.02385 0.0989214286 5.27775 0.0989214286 5.27775 10.59135 0.02385 10.59135"></polygon>
    </defs>
    <g id="TaxEngine:-Add" stroke="none" stroke-width="1" fill="none" fill-rule="evenodd">
        <g id="1" transform="translate(-971.000000, -812.000000)">
            <g id="Group-55" transform="translate(971.000000, 812.000000)">
                <path d="M3.85228152,13.382394 C4.4508894,13.382394 4.9358082,13.172154 5.30549111,12.7509068 C5.67594741,12.3288923 5.86078886,11.7787388 5.86078886,11.0981445 C5.86078886,10.4282924 5.67594741,9.88274275 5.30549111,9.46226283 C4.9358082,9.04024833 4.4508894,8.83000837 3.85228152,8.83000837 C3.51430781,8.83000837 3.1771075,8.91441127 2.83990719,9.08168248 C2.50270688,9.24818638 2.24671307,9.46226283 2.07192575,9.72160993 L2.07192575,12.4754464 C2.24671307,12.7240513 2.50580046,12.9365932 2.84841454,13.1146066 C3.19180201,13.2933873 3.52590874,13.382394 3.85228152,13.382394 M4.50580046,15.2131696 C3.52590874,15.2131696 2.71461717,14.8134068 2.07192575,14.0138811 L2.07192575,18 L0,18 L0,7.19412667 L2.07192575,7.19412667 L2.07192575,8.18240792 C2.6929621,7.39362444 3.50348028,7 4.50580046,7 C5.53982985,7 6.38051044,7.36369978 7.02861562,8.09263393 C7.67594741,8.82233538 8,9.82366071 8,11.0981445 C8,12.3726283 7.67594741,13.3770229 7.02861562,14.1113281 C6.38051044,14.8456334 5.53982985,15.2131696 4.50580046,15.2131696" id="Fill-1" fill="#3354CC"></path>
                <path d="M13.4912411,13.2167414 C14.1719344,13.2167414 14.7066457,13.0037369 15.0937066,12.577728 C15.4816016,12.151719 15.6751321,11.6233184 15.6751321,10.9917788 C15.6751321,10.3707025 15.4816016,9.84753363 15.0937066,9.42152466 C14.7066457,8.99626308 14.1719344,8.78251121 13.4912411,8.78251121 C12.8222263,8.78251121 12.2925202,8.99626308 11.9062934,9.42152466 C11.5192326,9.84753363 11.3248679,10.3707025 11.3248679,10.9917788 C11.3248679,11.6233184 11.5192326,12.151719 11.9062934,12.577728 C12.2925202,13.0037369 12.8222263,13.2167414 13.4912411,13.2167414 M16.7670776,13.8400598 C15.9445732,14.6136024 14.8534619,15 13.4912411,15 C12.1290203,15 11.0404115,14.6136024 10.2245806,13.8400598 C9.40791547,13.0665172 9,12.1173393 9,10.9917788 C9,9.86696562 9.40791547,8.91928251 10.2245806,8.15171898 C11.0404115,7.38340807 12.1290203,7 13.4912411,7 C14.8534619,7 15.9445732,7.38340807 16.7670776,8.15171898 C17.5887478,8.91928251 18,9.86696562 18,10.9917788 C18,12.1173393 17.5887478,13.0665172 16.7670776,13.8400598" id="Fill-3" fill="#3354CC"></path>
                <polygon id="Fill-5" fill="#3354CC" points="28.5177165 15 26.2217643 15 24.5007997 9.55030398 22.777436 15 20.4806841 15 18 7 20.2287771 7 21.748216 12.3830163 23.5363558 7 25.445251 7 27.2349902 12.3830163 28.7544291 7 31 7"></polygon>
                <path d="M38.0161725,10.2660688 C37.9730458,9.8348281 37.7912977,9.45665172 37.4724682,9.13004484 C37.1520986,8.80418535 36.683866,8.64050822 36.0654601,8.64050822 C35.4686176,8.64050822 35.0111667,8.80119581 34.6915672,9.12182362 C34.3719677,9.44245142 34.1886792,9.82436472 34.1470928,10.2660688 L38.0161725,10.2660688 Z M36.1956103,15 C34.9811321,15 33.9792068,14.632287 33.1867539,13.8953662 C32.3958414,13.1591928 32,12.190583 32,10.9925262 C32,9.87668161 32.3850597,8.93273543 33.1551791,8.15994021 C33.9245283,7.38565022 34.8941086,7 36.0654601,7 C37.2360416,7 38.1840585,7.38565022 38.9102811,8.15994021 C39.6365037,8.93273543 40,9.93946188 40,11.1816143 L40,11.6547085 L34.1624952,11.6547085 C34.2379669,12.1494768 34.4743935,12.5568012 34.8702349,12.877429 C35.2660762,13.1988042 35.7835965,13.3594918 36.4227955,13.3594918 C36.780901,13.3594918 37.1574894,13.293722 37.5525606,13.161435 C37.948402,13.0298954 38.2656912,12.8490284 38.5044282,12.6173393 L39.4308818,13.9424514 C38.6391991,14.6472347 37.5602618,15 36.1956103,15 L36.1956103,15 Z" id="Fill-7" fill="#3354CC"></path>
                <path d="M43.2602393,15 L41,15 L41,7.19366568 L43.2602393,7.19366568 L43.2602393,8.24390011 C43.5922805,7.88871878 44.0043823,7.59171371 44.4965447,7.3559468 C44.9887072,7.11788346 45.4901399,7 46,7 L46,9.00325328 C45.8449351,8.97110324 45.6384628,8.9557937 45.3780549,8.9557937 C44.9979774,8.9557937 44.5943031,9.04152713 44.1670319,9.21375945 C43.7397607,9.38599177 43.4372156,9.59649794 43.2602393,9.84451249 L43.2602393,15 Z" id="Fill-9" fill="#3354CC"></path>
                <path d="M53.0167517,10.2660688 C52.9728507,9.8348281 52.7918552,9.45665172 52.4722249,9.13004484 C52.1525946,8.80418535 51.6835467,8.64050822 51.0658515,8.64050822 C50.4689516,8.64050822 50.0114566,8.80119581 49.6910561,9.12182362 C49.372196,9.44245142 49.1896602,9.82436472 49.1465293,10.2660688 L53.0167517,10.2660688 Z M51.1960142,15 C49.9814191,15 48.9786271,14.632287 48.1868682,13.8953662 C47.3958795,13.1591928 47,12.190583 47,10.9925262 C47,9.87668161 47.3850968,8.93273543 48.1552903,8.15994021 C48.9247136,7.38565022 49.8943872,7 51.0658515,7 C52.2357755,7 53.1846539,7.38565022 53.9109464,8.15994021 C54.6372389,8.93273543 55,9.93946188 55,11.1816143 L55,11.6547085 L49.1627034,11.6547085 C49.2389525,12.1494768 49.4738616,12.5568012 49.869741,12.877429 C50.2656205,13.1988042 50.7831905,13.3594918 51.4239915,13.3594918 C51.7813613,13.3594918 52.1579859,13.293722 52.5530952,13.161435 C52.9489747,13.0298954 53.2662944,12.8490284 53.5050544,12.6173393 L54.4315972,13.9424514 C53.6406085,14.6472347 52.5615673,15 51.1960142,15 L51.1960142,15 Z" id="Fill-11" fill="#3354CC"></path>
                <path d="M60.1381439,13.1692243 C60.4854331,13.1692243 60.8257766,13.0855887 61.1560872,12.9183175 C61.4879413,12.7510463 61.7403048,12.5377372 61.9139495,12.2783901 L61.9139495,9.50844029 C61.7403048,9.24909319 61.4879413,9.03501674 61.1560872,8.86851283 C60.8257766,8.70124163 60.4854331,8.61683873 60.1381439,8.61683873 C59.5408065,8.61683873 59.0576886,8.82707868 58.6872468,9.24909319 C58.3191202,9.6695731 58.1338993,10.2151228 58.1338993,10.8849749 C58.1338993,11.5655692 58.3191202,12.1157227 58.6872468,12.5377372 C59.0576886,12.9589844 59.5408065,13.1692243 60.1381439,13.1692243 L60.1381439,13.1692243 Z M64,14.8058733 L61.9139495,14.8058733 L61.9139495,13.8007115 C61.2733938,14.6002372 60.4645958,15 59.486012,15 C58.4649817,15 57.6284005,14.6324637 56.9770403,13.8981585 C56.3256801,13.1638532 56,12.1594587 56,10.8849749 C56,9.63274275 56.3256801,8.63602121 56.9770403,7.89557757 C57.6284005,7.15590123 58.4649817,6.78683036 59.486012,6.78683036 C60.4962377,6.78683036 61.3058074,7.18582589 61.9139495,7.98535156 L61.9139495,4 L64,4 L64,14.8058733 Z" id="Fill-13" fill="#3354CC"></path>
                <path d="M73.0740454,12.2952706 C73.258869,12.5431083 73.519478,12.7518136 73.857419,12.9183175 C74.1938134,13.0855887 74.5325278,13.1699916 74.8696955,13.1699916 C75.4690188,13.1699916 75.9500242,12.9589844 76.3142581,12.5377372 C76.678492,12.11649 76.8609957,11.5663365 76.8609957,10.8857422 C76.8609957,10.2158901 76.678492,9.6703404 76.3142581,9.24909319 C75.9500242,8.82707868 75.4690188,8.61760603 74.8696955,8.61760603 C74.5325278,8.61760603 74.1938134,8.70354353 73.857419,8.87695313 C73.519478,9.04959542 73.258869,9.26597377 73.0740454,9.52455357 L73.0740454,12.2952706 Z M73.0740454,14.8058733 L71,14.8058733 L71,4 L73.0740454,4 L73.0740454,7.98611886 C73.6834219,7.18659319 74.4946351,6.78683036 75.5069116,6.78683036 C76.5300145,6.78683036 77.3682939,7.15666853 78.0209763,7.89634487 C78.6736588,8.63602121 79,9.63274275 79,10.8857422 C79,12.1594587 78.6736588,13.1646205 78.0209763,13.8989258 C77.3682939,14.633231 76.5300145,15 75.5069116,15 C74.5263412,15 73.7159014,14.6010045 73.0740454,13.8014788 L73.0740454,14.8058733 Z" id="Fill-15" fill="#3354CC"></path>
                <path d="M84.5207925,18 C83.1273346,18 81.9542875,17.6109794 81,16.8329381 L81.9939119,15.3597238 C82.5635125,15.9973493 83.4055309,16.3157785 84.5207925,16.3157785 C85.2191724,16.3157785 85.7706119,16.1239537 86.1775875,15.7410714 C86.582912,15.3574219 86.787638,14.8793945 86.787638,14.3069894 L86.787638,13.4967215 C86.0091838,14.2847377 85.020225,14.6791295 83.8240636,14.6791295 C82.9184811,14.6791295 82.2374368,14.4635184 81.7850583,14.0307617 C81.3326798,13.5995396 81.1048395,12.9949079 81.1048395,12.2168666 L81.1048395,7 L83.3188525,7 L83.3188525,11.4058315 C83.3188525,12.3680246 83.8356207,12.8483538 84.8699825,12.8483538 C85.6484367,12.8483538 86.2882056,12.5506417 86.787638,11.9575195 L86.787638,7 L89,7 L89,14.3069894 C89,15.4617746 88.59385,16.3664202 87.7798989,17.020159 C86.9675988,17.6731306 85.8804045,18 84.5207925,18" id="Fill-17" fill="#3354CC"></path>
                <path d="M119,15.4995352 C119,16.3287883 118.328067,17 117.500929,17 C116.671933,17 116,16.3287883 116,15.4995352 C116,14.6712117 116.671933,14 117.500929,14 C118.328067,14 119,14.6712117 119,15.4995352" id="Fill-19" fill="#3354CC"></path>
                <path d="M105,1.5 C105,2.32899628 104.328275,3 103.500465,3 C102.671725,3 102,2.32899628 102,1.5 C102,0.671003717 102.671725,0 103.500465,0 C104.328275,0 105,0.671003717 105,1.5" id="Fill-21" fill="#3354CC"></path>
                <path d="M118.042561,12 C117.513308,12 117.085123,11.5710428 117.085123,11.0425614 C117.085123,6.00925807 112.98997,1.9148772 107.957439,1.9148772 C107.428186,1.9148772 107,1.48592002 107,0.957438601 C107,0.428957181 107.428186,0 107.957439,0 C114.046162,0 119,4.95383824 119,11.0425614 C119,11.5710428 118.571814,12 118.042561,12" id="Fill-23" fill="#3354CC"></path>
                <g id="Group-27" transform="translate(96.000000, 3.000000)">
                    <mask id="mask-2" fill="white">
                        <use xlink:href="#path-1"></use>
                    </mask>
                    <g id="Clip-26"></g>
                    <path d="M11.9548154,20.00032 C5.58050769,20.00032 0.394315385,14.86352 0.394315385,8.54992 C0.394315385,5.49072 1.59696923,2.61632 3.78016154,0.45312 C4.17189231,0.06512 4.80593077,0.06512 5.19766154,0.45312 C5.58939231,0.84112 5.58939231,1.46912 5.19846923,1.85712 C3.39246923,3.64512 2.39900769,6.02112 2.39900769,8.54992 C2.39900769,13.76832 6.68623846,18.01472 11.9548154,18.01472 C14.5071231,18.01472 16.9075846,17.02992 18.7119692,15.24272 C19.1037,14.85472 19.7385462,14.85472 20.1294692,15.24272 C20.5203923,15.62992 20.5203923,16.25872 20.1294692,16.64672 C17.9462769,18.80912 15.0426231,20.00032 11.9548154,20.00032" id="Fill-25" fill="#3354CC" mask="url(#mask-2)"></path>
                </g>
                <path d="M107.505247,19 C103.366825,19 100,15.8361108 100,11.9454338 C100,11.4235787 100.449829,11 101.005022,11 C101.561027,11 102.011666,11.4235787 102.011666,11.9454338 C102.011666,14.7931626 104.476402,17.1098943 107.505247,17.1098943 C109.394527,17.1098943 111.129811,16.2132178 112.14537,14.7116465 C112.443634,14.2705457 113.065289,14.1410342 113.532949,14.4206266 C114.00304,14.7009809 114.140825,15.2853062 113.842561,15.7256452 C112.455792,17.7764975 110.087506,19 107.505247,19" id="Fill-28" fill="#3354CC"></path>
                <path d="M113.969618,12 C113.400043,12 112.939236,11.5764213 112.939236,11.0545662 C112.939236,8.20683744 110.415173,5.89086754 107.311573,5.89086754 C106.649006,5.89086754 105.999724,5.99523855 105.383654,6.20169508 C104.848951,6.37996381 104.257789,6.12779735 104.062672,5.63717741 C103.867556,5.14655747 104.14321,4.60413294 104.678743,4.42510237 C105.521481,4.14322445 106.407394,4 107.311573,4 C111.551001,4 115,7.16465099 115,11.0545662 C115,11.5764213 114.539193,12 113.969618,12" id="Fill-30" fill="#3354CC"></path>
                <path d="M108.000389,9.71406371 C107.291672,9.71406371 106.715063,10.2905983 106.715063,10.999223 C106.715063,11.7086247 107.291672,12.2859363 108.000389,12.2859363 C108.709105,12.2859363 109.285714,11.7086247 109.285714,10.999223 C109.285714,10.2905983 108.709105,9.71406371 108.000389,9.71406371 M108.000389,14 C106.34594,14 105,12.6534577 105,10.999223 C105,9.34498834 106.34594,8 108.000389,8 C109.654837,8 111,9.34498834 111,10.999223 C111,12.6534577 109.654837,14 108.000389,14" id="Fill-32" fill="#3354CC"></path>
                <path d="M132.087181,9.63446338 C132.087181,9.1151414 131.913216,7.55796592 130.000397,7.55796592 C128.086784,7.55796592 127.912819,9.1151414 127.912819,9.63446338 L128.086784,9.80836115 L131.913216,9.80836115 L132.087181,9.63446338 Z M126,10.5007904 C126,8.07649745 127.21696,6 130.000397,6 C132.782246,6 134,8.07649745 134,10.5007904 L134,11.019322 L133.826035,11.1924293 L128.086784,11.1924293 L127.912819,11.3647462 C127.912819,11.7109608 128.086784,13.4420341 130.173568,13.4420341 C130.869427,13.4420341 131.565286,13.2689268 131.913216,12.4041806 L132.087181,12.2302828 L133.478105,12.2302828 L133.65207,12.4041806 C133.478105,13.7882487 132.261146,15 130.173568,15 C127.391719,15 126,13.0958194 126,10.5007904 L126,10.5007904 Z" id="Fill-34" fill="#3354CC"></path>
                <path d="M140.173982,13.4420341 C141.565839,13.4420341 142.086991,12.7496048 142.261768,12.0571755 L142.43575,11.8840682 L143.827607,11.8840682 L144,12.0571755 C143.827607,13.614351 142.608937,15 140.173982,15 C137.565045,15 136,13.2681363 136,10.5 C136,7.7302828 137.565045,6 140.173982,6 C142.608937,6 143.827607,7.3848586 144,8.94282452 L143.827607,9.11435096 L142.43575,9.11435096 L142.261768,8.94282452 C142.086991,8.25039522 141.565839,7.55796592 140.173982,7.55796592 C138.608937,7.55796592 137.739821,8.59581943 137.739821,10.5 C137.739821,12.4041806 138.608937,13.4420341 140.173982,13.4420341" id="Fill-36" fill="#3354CC"></path>
                <path d="M150.334131,11.1920949 L150.16663,11.0189723 C150.16663,11.0189723 149.666413,10.8466403 148.833478,10.8466403 C147.333587,10.8466403 146.66663,11.3652174 146.66663,12.2300395 C146.66663,13.0956522 147.166087,13.4426877 148.166522,13.4426877 C149.500435,13.4426877 150.334131,12.7501976 150.334131,11.7106719 L150.334131,11.1920949 Z M151.834022,14.8268775 L150.666848,14.8268775 L150.50087,14.6529644 L150.334131,13.9612648 L150.16663,13.9612648 C150.16663,13.9612648 149.500435,15 147.833805,15 C146.000435,15 145,13.9612648 145,12.2300395 C145,10.3264822 146.499891,9.46245059 148.666739,9.46245059 C149.500435,9.46245059 150.16663,9.63399209 150.16663,9.63399209 L150.334131,9.46245059 L150.334131,9.11462451 C150.334131,7.90434783 149.833913,7.55731225 148.666739,7.55731225 C147.500326,7.55731225 147.000109,7.90434783 147.000109,8.59604743 L146.832608,8.76916996 L145.499456,8.76916996 L145.333478,8.59604743 C145.333478,7.38498024 146.165652,6 148.666739,6 C151.167065,6 152,7.21185771 152,9.80790514 L152,14.6529644 L151.834022,14.8268775 Z" id="Fill-38" fill="#3354CC"></path>
                <path d="M158.827559,7.62029594 L157.964567,7.62029594 C156.585827,7.62029594 155.725197,8.16039459 155.725197,10.3199671 L155.725197,14.819145 L155.551969,15 L154.173228,15 L154,14.819145 L154,6.18085495 L154.173228,6 L155.37874,6 L155.551969,6.18085495 L155.725197,6.90016441 L155.896063,6.90016441 C156.414173,6.36088783 156.930709,6 158.137795,6 L158.827559,6 L159,6.18085495 L159,7.44026306 L158.827559,7.62029594 Z" id="Fill-40" fill="#3354CC"></path>
                <path d="M166.086991,9.63446338 C166.086991,9.1151414 165.913009,7.55796592 164,7.55796592 C162.086991,7.55796592 161.912214,9.1151414 161.912214,9.63446338 L162.086991,9.80836115 L165.913009,9.80836115 L166.086991,9.63446338 Z M160,10.5007904 C160,8.07649745 161.21708,6 164,6 C166.78292,6 168,8.07649745 168,10.5007904 L168,11.019322 L167.826812,11.1924293 L162.086991,11.1924293 L161.912214,11.3647462 C161.912214,11.7109608 162.086991,13.4420341 164.173982,13.4420341 C164.869911,13.4420341 165.565839,13.2689268 165.913009,12.4041806 L166.086991,12.2302828 L167.478054,12.2302828 L167.65283,12.4041806 C167.478054,13.7882487 166.261768,15 164.173982,15 C161.391063,15 160,13.0958194 160,10.5007904 L160,10.5007904 Z" id="Fill-42" fill="#3354CC"></path>
                <path d="M172.4996,15 C170.223821,15 169,13.9613561 169,12.0571755 L169.174261,11.8848586 L170.57474,11.8848586 L170.7498,12.0571755 C170.7498,12.9227121 171.274181,13.4420341 172.4996,13.4420341 C173.72502,13.4420341 174.2494,13.0958194 174.2494,12.4041806 C174.2494,11.5386439 173.72502,11.3647462 171.97522,11.019322 C170.223821,10.6723169 169.174261,9.98067803 169.174261,8.42350255 C169.174261,7.21175127 170.05036,6 172.4996,6 C174.42446,6 175.824141,6.86632707 175.824141,8.59581943 L175.64988,8.76892675 L174.2494,8.76892675 L174.07514,8.59581943 C174.07514,8.07649745 173.72502,7.55796592 172.4996,7.55796592 C171.6251,7.55796592 170.924061,7.73107325 170.924061,8.42350255 C170.924061,9.28824873 171.6251,9.4621465 173.3749,9.80836115 C175.1247,10.1537854 176,10.8462146 176,12.4041806 C176,13.7882487 174.94964,15 172.4996,15" id="Fill-44" fill="#3354CC"></path>
                <path d="M181.999619,13.4420341 C183.500048,13.4420341 184.332858,12.4041806 184.332858,10.5 C184.332858,8.59581943 183.500048,7.55796592 181.999619,7.55796592 C180.499952,7.55796592 179.667142,8.59581943 179.667142,10.5 C179.667142,12.4041806 180.499952,13.4420341 181.999619,13.4420341 M181.999619,6 C184.499572,6 186,7.7302828 186,10.5 C186,13.2681363 184.499572,15 181.999619,15 C179.499667,15 178,13.2681363 178,10.5 C178,7.7302828 179.499667,6 181.999619,6" id="Fill-46" fill="#3354CC"></path>
                <path d="M192.624893,7.76437399 L190.750214,7.76437399 L190.562661,7.94169801 L190.562661,14.822676 L190.374251,15 L188.874679,15 L188.686269,14.822676 L188.686269,7.94169801 L188.500428,7.76437399 L187.186697,7.76437399 L187,7.58785599 L187,6.353036 L187.186697,6.17571198 L188.500428,6.17571198 L188.686269,6 L188.686269,5.29473401 C188.686269,3.706072 190,3 191.312875,3 L192.812446,3 L193,3.176518 L193,4.41214401 L192.812446,4.58866201 L191.312875,4.58866201 C190.936911,4.58866201 190.562661,4.76437399 190.562661,5.29473401 L190.562661,6 L190.750214,6.17571198 L192.624893,6.17571198 L192.812446,6.353036 L192.812446,7.58785599 L192.624893,7.76437399 Z" id="Fill-48" fill="#3354CC"></path>
                <g id="Group-52" transform="translate(194.000000, 5.000000)">
                    <mask id="mask-4" fill="white">
                        <use xlink:href="#path-3"></use>
                    </mask>
                    <g id="Clip-51"></g>
                    <path d="M5.1141,10.59135 L3.8001,10.59135 C2.6511,10.59135 1.5021,9.90306429 1.5021,8.35520714 L1.5021,3.71085 L1.3371,3.53799286 L0.1881,3.53799286 L0.02385,3.36670714 L0.02385,2.16220714 L0.1881,1.99013571 L1.3371,1.99013571 L1.5021,1.81806429 L1.5021,0.270207143 L1.66485,0.0989214286 L2.9796,0.0989214286 L3.1431,0.270207143 L3.1431,1.81806429 L3.3081,1.99013571 L5.1141,1.99013571 L5.27835,2.16220714 L5.27835,3.36670714 L5.1141,3.53799286 L3.3081,3.53799286 L3.1431,3.71085 L3.1431,8.35520714 C3.1431,8.87142143 3.47235,9.04270714 3.8001,9.04270714 L5.1141,9.04270714 L5.27835,9.21556429 L5.27835,10.4184929 L5.1141,10.59135 Z" id="Fill-50" fill="#3354CC" mask="url(#mask-4)"></path>
                </g>
                <path d="M104,7.5 C104,8.32899628 103.328067,9 102.5,9 C101.671933,9 101,8.32899628 101,7.5 C101,6.67100372 101.671933,6 102.5,6 C103.328067,6 104,6.67100372 104,7.5" id="Fill-53" fill="#3354CC"></path>
            </g>
        </g>
    </g>
</svg>